PathFileType	4	(X/Y/Z)	/Users/visionmauri/1_6_1_f_Sports2D/1_6_1_f_Sports2D_m_person00.trc
DataRate	CameraRate	NumFrames	NumMarkers	Units	OrigDataRate	OrigDataStartFrame	OrigNumFrames
30.0	30.0	6	22	m	30.0	0	447
Frame#	Time	Hip			RHip			RKnee			RAnkle			RBigToe			RSmallToe			RHeel			LHip			LKnee			LAnkle			LBigToe			LSmallToe			LHeel			Neck			Head			Nose			RShoulder			RElbow			RWrist			LShoulder			LElbow			LWrist			
		X1	Y1	Z1	X2	Y2	Z2	X3	Y3	Z3	X4	Y4	Z4	X5	Y5	Z5	X6	Y6	Z6	X7	Y7	Z7	X8	Y8	Z8	X9	Y9	Z9	X10	Y10	Z10	X11	Y11	Z11	X12	Y12	Z12	X13	Y13	Z13	X14	Y14	Z14	X15	Y15	Z15	X16	Y16	Z16	X17	Y17	Z17	X18	Y18	Z18	X19	Y19	Z19	X20	Y20	Z20	X21	Y21	Z21	X22	Y22	Z22
0	0.0	0.6975042413233666	0.7951010550669797	0.0301	0.8601341352243703	0.770153259888538	0.0301	1.0212867863181987	0.23133404500992777	0.129	1.199071776646176	-0.33694125281596154	0.023	1.1700912381941697	-0.4194345990359586	0.2179	1.2770079477617655	-0.3935715251448164	0.1804	1.242130423577609	-0.4347904102690906	-0.0119	0.5866787709327222	0.6828924050658722	0.0301	0.7519069877416078	0.2325126644189873	0.129	0.9205952671764251	-0.2665135578226142	0.023	1.0223501697280917	-0.4760107305615247	0.2179	0.9424202543584626	-0.4922373889660919	0.1804	0.9656169881896002	-0.37085872979010703	-0.0119	0.38296950018235815	1.627590903547648	0.0008	0.31849236917375073	1.7914465073840729	0.0655	0.39417567856760516	1.6526138600605609	0.1076	0.7042542902608939	1.608689540150306	-0.01275	0.9722238130078735	1.2405591461136858	0.0702	1.0642466842843927	0.9699505324203695	0.1076	0.17054867513583735	1.4161357564342645	-0.01275	0.20400697801643428	0.9772625931307163	0.0702	0.20107221152681995	0.9502824992371908	0.1076
1	0.03340807174887892	0.6956702857883538	0.7960299363681784	0.0301	0.8587170086366553	0.7708751998479759	0.0301	1.0196237711967648	0.23102406280966767	0.129	1.1974673489803318	-0.3347913269093184	0.023	1.1655206190650385	-0.4159083729481783	0.2179	1.2777969363784805	-0.38980979792345016	0.1804	1.2412474569962864	-0.43594752639971995	-0.0119	0.583353276568083	0.6803268073957771	0.0301	0.7525573996175884	0.22669318089423018	0.129	0.9167539450804129	-0.26258106909634205	0.023	1.022220463894948	-0.47331604403933386	0.2179	0.9366437847205425	-0.4924553737120576	0.1804	0.9633104411987443	-0.3695170239657558	-0.0119	0.38219217331382477	1.6272005888502181	0.0008	0.3182895504968281	1.7895523937359796	0.0655	0.3947293033065852	1.650252387464576	0.1076	0.7036784227643357	1.6085534908424257	-0.01275	0.9689992504908997	1.2406597678760025	0.0702	1.0631123150107065	0.9709190517793371	0.1076	0.16759681803524465	1.4212655344108547	-0.01275	0.19908064820967397	0.9710678156747983	0.0702	0.20093198048970695	0.9523879753286775	0.1076
2	0.06681614349775784	0.6908521194901271	0.7991682699600596	0.0301	0.8542721931032474	0.7717602949873583	0.0301	1.0172926627359244	0.23009260450717461	0.129	1.1959289345936155	-0.33132599105302923	0.023	1.162935864629805	-0.407571549939708	0.2179	1.2801613714367832	-0.3835114534648608	0.1804	1.2400492216571535	-0.43681037415573026	-0.0119	0.5769639385654414	0.6794746313319635	0.0301	0.7512443195009478	0.2210088096809271	0.129	0.913776999652125	-0.2584242879495539	0.023	1.021157109451397	-0.46961433699025595	0.2179	0.9291027623238539	-0.4935777951211404	0.1804	0.9611516673784148	-0.3691722853138252	-0.0119	0.3803848047763059	1.627043520298431	0.0008	0.3153975652434204	1.787785716347127	0.0655	0.3937971520411352	1.649589177017578	0.1076	0.7027398420648409	1.6074756898275866	-0.01275	0.9656868488368513	1.2428325555202995	0.0702	1.0606536618388618	0.9732410228936993	0.1076	0.16362667753784418	1.4295097916786355	-0.01275	0.19183575130081776	0.9679521066751442	0.0702	0.2015944365197933	0.9512535703178762	0.1076
3	0.10022421524663677	0.6836873316720363	0.8037223949881893	0.0301	0.8472965083895512	0.7726900451371465	0.0301	1.0152347515171278	0.22901129684434254	0.129	1.1943658792128051	-0.32822943954218115	0.023	1.163105053977944	-0.39728209578235685	0.2179	1.283016530169733	-0.3780547903970458	0.1804	1.238522298824256	-0.43612161972615426	-0.0119	0.5688339272188586	0.681111155210116	0.0301	0.7470719986022342	0.22007023320915378	0.129	0.9136494168325024	-0.2556178736072972	0.023	1.018620789352477	-0.46531794030877216	0.2179	0.9231595644356563	-0.49318012170896275	0.1804	0.9601242926749118	-0.37023806631741657	-0.0119	0.3770041596409543	1.6277207706120838	0.0008	0.309458250901815	1.7860209605398298	0.0655	0.38924926388001196	1.6510940648232242	0.1076	0.7010574724606354	1.6057327537098485	-0.01275	0.9629762118630918	1.2476406381348302	0.0702	1.0574313659744516	0.9764614341260988	0.1076	0.15869234981831754	1.437334344365625	-0.01275	0.18386443332412636	0.9731072296592279	0.0702	0.20289065753206523	0.9464528271400481	0.1076
4	0.1336322869955157	0.6770290302947198	0.806930966313328	0.0301	0.8413248855075967	0.7743233454881892	0.0301	1.0139248515036272	0.22807437798002872	0.129	1.1927034266442174	-0.327539396600878	0.023	1.1638759581118479	-0.3915320321654524	0.2179	1.284056016997147	-0.37695782310748605	0.1804	1.2367412704686176	-0.4332683614574962	-0.0119	0.5619688299428589	0.6840175842666706	0.0301	0.7411320126967752	0.22598944699781362	0.129	0.9153167516935574	-0.2554351262185095	0.023	1.013526620904076	-0.45837478929588	0.2179	0.9200736371826232	-0.48605807846171517	0.1804	0.9607508191387832	-0.3723812987245031	-0.0119	0.3721908856834714	1.6298215690004265	0.0008	0.30214569340349495	1.7836746675575383	0.0655	0.3799136692798542	1.6522207975185714	0.1076	0.6978272793022435	1.6059257852504376	-0.01275	0.9611743740190056	1.25336764316215	0.0702	1.0554489424845785	0.9785644505319923	0.1076	0.15342914087181161	1.440818765621821	-0.01275	0.17809860280159778	0.9874615028546935	0.0702	0.20359871368074273	0.9420481384807655	0.1076
5	0.1670403587443946	0.6728268098128761	0.8084003299295209	0.0301	0.8385467673101665	0.7781568792358227	0.0301	1.012749785925917	0.22662906145372644	0.129	1.1915597754214748	-0.3287382594158821	0.023	1.1631923666414965	-0.3916106115852026	0.2179	1.2828603412044082	-0.37836241354641303	0.1804	1.2351792357501683	-0.42999999707475123	-0.0119	0.5569132425460637	0.6875232601436587	0.0301	0.735086483352037	0.23378452939779237	0.129	0.9143474931186374	-0.25775808475226714	0.023	1.0059507548908329	-0.446769932327009	0.2179	0.9163571923006146	-0.47231454575026627	0.1804	0.9616046376413054	-0.375196542848122	-0.0119	0.36674511655024444	1.632140304990099	0.0008	0.29484912363616067	1.7803408119809254	0.0655	0.36811129398489917	1.6496295999657766	0.1076	0.6926070492581261	1.6095927914719081	-0.01275	0.960030637193467	1.2572734442135993	0.0702	1.055229163738197	0.9785743516347903	0.1076	0.14932901808391624	1.441715564962435	-0.01275	0.17620196374322206	1.0017049803393083	0.0702	0.20358522895204706	0.940654126210185	0.1076
